<svg xmlns="http://www.w3.org/2000/svg" viewBox="0 0 300 300"><defs><style>.a{fill:#fc943f;}.b{fill:#9ef2eb;}.c{fill:#fff;}.d{fill:none;}.e{fill:#ffc5ff;}</style></defs><title>Downloading_1</title><rect class="a" x="45.51" y="159.26" width="20.457" height="20.457" transform="translate(-13.84 5.196) rotate(-4.749)"/><rect x="65.826" y="155.938" width="59.948" height="20.457" transform="translate(-13.428 8.501) rotate(-4.749)"/><polyline class="b" points="249.077 219.154 262.557 247.585 254.346 251.572 249.077 240.845 246.182 257.362 205.506 257.362 210.062 244.689 227.766 244.689 230.661 227.65"/><path class="c" d="M146.272,144.447l-36.595-13.053a6.279,6.279,0,0,1-3.8-7.973l11.629-32.7a6.28,6.28,0,0,1,7.974-3.8L252.922,132.3l23.4,8.354,14.9,5.316a6.279,6.279,0,0,1,3.8,7.973l-11.629,32.7a6.28,6.28,0,0,1-7.974,3.8L248.6,180.9Z"/><rect x="149.101" y="88.975" width="13.527" height="67.682" transform="translate(-12.138 228.424) rotate(-70.391)"/><polyline class="a" points="216.66 169.555 188.561 230.45 164.877 218.585 191.694 160.632"/><line class="d" x1="225.061" y1="172.545" x2="170.858" y2="153.228"/><path class="a" d="M225.061,172.545a4.826,4.826,0,0,0,1.424,6.6c2.373,1.424,5.695.475,7.5-2.04-1.756,2.563-1.329,5.79,1.044,7.167a5.17,5.17,0,0,0,4.272.379l-3.37,6.787L249.077,219.2,222.5,231.5l-14.239-28.573a16.974,16.974,0,0,1-.238-14.619l8.639-18.7Z"/><polyline class="b" points="186.331 229.311 174.085 257.362 165.067 253.233 171.285 238.756 156.903 249.056 127.476 233.963 138.915 224.423 152.632 231.447 169.102 220.673"/><path class="e" d="M148.93,154.794l-8.354-2.706,7.5-10.062a6.731,6.731,0,0,1,6.882-2.373l.095.047c2.279.712,2.9,2.991,1.377,5.032Z"/><path class="e" d="M157.283,157.5l-8.353-2.7,7.5-10.062a6.731,6.731,0,0,1,6.882-2.374l.095.048c2.278.712,2.895,2.99,1.376,5.031Z"/><path class="e" d="M165.637,160.157l-8.354-2.705,7.5-10.063a6.733,6.733,0,0,1,6.883-2.373l.094.048c2.279.712,2.9,2.99,1.377,5.031Z"/><rect class="c" x="47.929" y="177.109" width="80.406" height="41.057" transform="translate(-16.059 7.975) rotate(-4.749)"/><rect x="58.271" y="193.671" width="59.948" height="9.635" transform="translate(-16.129 7.987) rotate(-4.749)"/><rect class="e" x="58.236" y="194.133" width="48.699" height="9.635" transform="translate(-16.187 7.52) rotate(-4.749)"/><rect class="b" x="225.626" y="102.748" width="13.527" height="94.736" transform="translate(12.989 318.648) rotate(-70.391)"/><path class="e" d="M280.83,134.242,248.65,180.9l5.648,1.993-.047.048-3.275,4.319c-1.756,2.563-5.126,3.465-7.5,2.041s-2.8-4.652-1.045-7.167a6.33,6.33,0,0,1-3.18,2.42,4.982,4.982,0,0,1-4.271-.379c-2.374-1.424-2.8-4.652-1.045-7.167-1.756,2.563-5.126,3.464-7.5,2.041-2.325-1.424-2.8-4.652-1.044-7.167l5.506-7.927L252.922,132.3l-63.791-22.735,24.728-17.893,60.421,22.07A13.661,13.661,0,0,1,280.83,134.242Z"/><polygon class="c" points="43.561 81.463 45.412 48.001 65.062 79.042 96.055 77.191 61.977 100.828 69.808 135.524 43.561 103.296 14.086 121.997 30.651 91.762 6.682 71.97 43.561 81.463"/><path class="c" d="M253.824,106.381l-2.563-.949,7.119-16.185a5.277,5.277,0,0,0,5.031-.712,5.573,5.573,0,0,0,1.8-6.692,4.707,4.707,0,0,0-2.421-2.611l1.9-4.319-21.454-9.4-3.227,6.6-6.74.759a3.189,3.189,0,0,0-2.611,2.99,2.781,2.781,0,0,0,1.8,2.99,4.007,4.007,0,0,0,1.9.238c1-.143,2.325-.285,2.325-.285l-3.654,7.5a5.97,5.97,0,0,0,.237,5.079,5.5,5.5,0,0,0,4.889,2.753c.949,0,5.363-.048,5.363-.048l-3.085,7.262-2.278-.854,3.987,11.2Z"/><path class="b" d="M243.192,65.515l.664-1.376a11.616,11.616,0,0,1,15.426-5.364l.19.095a11.638,11.638,0,0,1,5.6,15.094l-.427,1Z"/><path class="e" d="M176.458,45.2l-4.176,7.4h0a13.59,13.59,0,1,1-8.259-1.661l-.949-8.448a22.227,22.227,0,1,0,13.384,2.7Z"/><path d="M176.458,45.2l-4.176,7.4a13.607,13.607,0,0,0-6.645-1.756c-.57,0-1.092.048-1.614.1l-.949-8.448a23.378,23.378,0,0,1,2.61-.143A22.371,22.371,0,0,1,176.458,45.2Z"/><polygon class="a" points="256.909 107.473 250.311 123.231 227.956 114.925 234.506 99.309 227.956 96.889 218.321 120.003 252.969 132.344 255.627 128.547 263.411 109.846 256.909 107.473"/><path d="M127.286,174.491h0l-1.8-21.786-59.757,4.984h0l-21.785,1.8,1.708,20.361h0l3.513,42.338L130.7,215.4ZM65.821,159.113l58.38-4.841,1.566,18.985-45.944,3.8L67.435,178.1l-.807-9.492ZM57.99,178.858l-9.967.807,7.784-9.161,9.16,7.784Zm7.926-1.709-9.16-7.784,7.784-9.16.712,8.5Zm-10.252-8.686-9.16-7.784,16.944-1.424Zm-.949,1.092-7.784,9.16-1.424-16.944Zm-7.547,11.628,18.986-1.566h0l33.414-2.8,26.342-2.184,3.275,39.49-78.694,6.55Z"/><path d="M118.363,190.486l-11.249.949h0l-49.931,4.13.9,11.011,49.931-4.129h0l11.249-.949ZM59.414,205.01l-.665-8.164,47.084-3.892.664,8.164Zm48.507-4.034-.664-8.164,9.825-.807.664,8.164Z"/><path d="M295.5,148.908a6.923,6.923,0,0,0-3.939-3.559l-14.049-4.984,3.939-5.7a14.26,14.26,0,0,0,1.851-12.435,14.114,14.114,0,0,0-8.686-9.066l-22.355-8.163,6.55-14.9a5.3,5.3,0,0,0,4.224-.474,6.722,6.722,0,0,0,2.991-3.56,6.11,6.11,0,0,0-2.279-7.167l2.041-4.7a12.265,12.265,0,0,0-5.933-15.995l-.189-.1a12.34,12.34,0,0,0-16.375,5.7l-.19.332L229.76,46.388l-1.139.854,13.764,18.321-2.848,5.885-6.17.712a3.775,3.775,0,0,0-3.418,4.082v.047a3.824,3.824,0,0,0,4.177,3.56l1.377-.142-3.085,6.265A6.074,6.074,0,0,0,232.75,92a6.232,6.232,0,0,0,5.268,2.895h.048l4.366-.047-2.373,5.648-26.2-9.588L189.131,108.8,125.862,86.257a6.971,6.971,0,0,0-8.875,4.224l-11.629,32.7a6.965,6.965,0,0,0,4.224,8.876l35.645,12.72-5.838,7.689,9.778,3.133h0l8.353,2.705h0l8.354,2.706,5.174-6.93,19.649,6.977-26.769,57.858,3.75,1.851-15.094,9.825-13.764-7.025L126.2,234.105l30.756,15.805,12.673-9.113-5.459,12.815,10.252,4.7,12.246-28,2.231,1.139L205.743,194.9a17.013,17.013,0,0,0,1.851,8.306l14.524,29.19,7.594-3.512-2.563,15.141H209.54l-5.031,14.1h42.243l2.61-14.95,4.651,9.445,9.446-4.652-13.765-29.047h0l-13-27.529,3.085-6.265a8.951,8.951,0,0,0,.95-.475,6.643,6.643,0,0,0,.047,1.946,5,5,0,0,0,2.326,3.323,5.452,5.452,0,0,0,2.848.759,6.988,6.988,0,0,0,5.6-2.99l2.99-3.94,20.647,7.357a6.7,6.7,0,0,0,2.326.427,7.4,7.4,0,0,0,2.99-.664,6.923,6.923,0,0,0,3.56-3.94l11.628-32.7A6.5,6.5,0,0,0,295.5,148.908Zm-42.812-17.371L219.27,119.623l9.113-21.785,5.174,1.9-6.5,15.616,23.684,8.828,6.6-15.758,5.173,1.9-7.5,17.893Zm-17.8-31.326,2.705,1,4.129,11.628,12.151-5.648,2.088.759-6.027,14.429-21.027-7.831ZM259,59.392l.19.095a10.794,10.794,0,0,1,5.221,14.144l-.143.333-20.124-8.828.38-.712A10.9,10.9,0,0,1,259,59.392Zm-18.178,42.955,3.749-8.923-6.55.047h-.047a4.883,4.883,0,0,1-4.082-2.231,4.661,4.661,0,0,1-.237-4.651l.664-1.424a8.868,8.868,0,0,0,3.8,1.329,5.11,5.11,0,0,0,.855.048,8.2,8.2,0,0,0,5.078-1.709l-.854-1.139a7.089,7.089,0,0,1-4.936,1.376,6.68,6.68,0,0,1-3.275-1.186l2.9-5.886-3.94.427a2.322,2.322,0,0,1-1.756-.569,2.474,2.474,0,0,1-.854-1.661v-.048a2.386,2.386,0,0,1,2.183-2.563l6.93-.807,3.085-6.36L263.7,75.293l-1.329,3.037A5.462,5.462,0,0,0,258,78.9l.712,1.234a4.057,4.057,0,0,1,3.37-.38A4.546,4.546,0,0,1,264.6,85.64a4.894,4.894,0,0,1-2.326,2.8,4,4,0,0,1-3.275.332,4.309,4.309,0,0,1-2.8-4.082l-1.424.048a5.791,5.791,0,0,0,2.658,4.889l-7.167,16.28,1.661.617-9.445,4.414-3.18-9.018Zm-26.77-9.778,13,4.747-9.113,21.833L190.7,109.466Zm-65.4,49.932a6.223,6.223,0,0,1,4.746-2.326,3.923,3.923,0,0,1,1.329.19l.095.047a2.308,2.308,0,0,1,1.614,1.472,2.676,2.676,0,0,1-.617,2.468l-7.215,9.635-6.929-2.231ZM157,145.159a6.225,6.225,0,0,1,4.747-2.326,3.927,3.927,0,0,1,1.329.19l.095.047a2.307,2.307,0,0,1,1.613,1.472,2.671,2.671,0,0,1-.617,2.468l-7.214,9.635-6.93-2.231Zm8.4,14.191-6.929-2.231,6.929-9.255a6.228,6.228,0,0,1,4.747-2.326,3.927,3.927,0,0,1,1.329.19l.095.048a2.307,2.307,0,0,1,1.613,1.471,2.67,2.67,0,0,1-.617,2.468Zm8.354-8.828a4.141,4.141,0,0,0,.807-3.75A3.792,3.792,0,0,0,172,144.4l-.1-.047a5.525,5.525,0,0,0-1.8-.285,7.752,7.752,0,0,0-3.8,1.044,3.7,3.7,0,0,0-.142-1.044,3.792,3.792,0,0,0-2.563-2.373l-.095-.048a5.552,5.552,0,0,0-1.8-.284,7.741,7.741,0,0,0-3.8,1.044,3.7,3.7,0,0,0-.142-1.044,3.8,3.8,0,0,0-2.563-2.374l-.095-.047a5.525,5.525,0,0,0-1.8-.285,7.488,7.488,0,0,0-5.885,2.9l-1.472,1.993-36.072-12.863a5.555,5.555,0,0,1-3.37-7.072l11.629-32.7a5.511,5.511,0,0,1,7.072-3.322l126.537,45.09-9.113,13.1L228.383,140.7,215,135.951h0l-12.768-4.557h0l-12.1-4.319h0L125.72,104.1l-5.031,14.1L185.1,141.172h0l13.432,4.794h0l12.767,4.556h0l12.768,4.557h0l9.73,3.464L224.776,171.5c-.047.047-.047.095-.095.142L171.9,152.848Zm60.99,6.835-10.062-3.607.665-1.851,3.417-9.541,13.195,4.7Zm-11.438-4.082-11.392-4.082,2.041-5.7L216,137.8l11.391,4.082-3.607,10.109Zm-12.768-4.557-11.391-4.081,2.041-5.7,2.041-5.7,11.391,4.082-2.041,5.7Zm-12.72-4.509-11.391-4.081,4.081-11.392,11.392,4.082-2.041,5.7Zm-12.768-4.556-62.414-22.26L126.717,106l62.414,22.261Zm-11.344,116.76-7.689-3.512,6.93-16.233-16.09,11.581L128.805,233.82l10.252-8.543,13.67,6.977L169.2,221.527l16.233,8.116Zm14.524-26.959-22.4-11.2,26.247-56.718,23.636,8.4Zm66.449,21.168-5.933-12.055-3.18,18.083H206.55l4.034-11.249h17.847l2.942-17.276,17.419-8.069,12.863,27.149Zm-19.555-59.234,13,27.434L222.83,230.5l-13.907-27.956a16.1,16.1,0,0,1-.19-14l8.354-18.131,7.072,2.516a6.223,6.223,0,0,0-.332,3.465,5,5,0,0,0,2.325,3.322,5.411,5.411,0,0,0,2.8.759,6.67,6.67,0,0,0,3.275-.9,6.644,6.644,0,0,0,.047,1.946,4.993,4.993,0,0,0,2.326,3.322,5.4,5.4,0,0,0,2.8.759,2.337,2.337,0,0,0,.57-.047Zm15.283-4.462c-1.566,2.231-4.509,3.086-6.5,1.852A3.81,3.81,0,0,1,242.2,186.4a4.893,4.893,0,0,1,.854-3.8l-1.186-.807c-1.566,2.231-4.509,3.086-6.5,1.851a3.807,3.807,0,0,1-1.708-2.373,4.889,4.889,0,0,1,.854-3.8l-1.187-.807c-1.566,2.231-4.509,3.085-6.5,1.851a3.812,3.812,0,0,1-1.709-2.373,4.89,4.89,0,0,1,.855-3.8L256.2,128.926l7.546-18.131,10.3,3.75a12.87,12.87,0,0,1,7.831,8.164,12.6,12.6,0,0,1-1.661,11.153l-14,20.362-.095-.047-.143.427-18.416,26.674,5.6,1.994Zm9.256-20.694,4.461-6.455-2.515,7.12Zm7.309-10.252,11.391,4.082-4.082,11.391-11.391-4.081Zm27.434-2.23-11.629,32.7a5.44,5.44,0,0,1-2.848,3.132,5.668,5.668,0,0,1-4.224.238l-25.962-9.256,9.065-13.147,3.607,1.282h0l12.768,4.556,5.031-14.1L267.635,154.7l9.066-13.147,14.429,5.126a5.438,5.438,0,0,1,3.132,2.847A5.655,5.655,0,0,1,294.4,153.75Z"/><path d="M154.483,84.406a22.78,22.78,0,0,0,31.088-8.734,22.743,22.743,0,0,0-8.733-31.041,22.78,22.78,0,0,0-31.088,8.734,22.743,22.743,0,0,0,8.733,31.041Zm20.979-38.92L172,51.656a14.25,14.25,0,0,0-6.36-1.519,6.929,6.929,0,0,0-1,.048l-.854-7.025c.617-.047,1.234-.095,1.851-.095A22.094,22.094,0,0,1,175.462,45.486Zm-9.825,6.075a12.907,12.907,0,1,1-11.249,6.6A12.94,12.94,0,0,1,165.637,51.561Zm-18.653,2.468A21.388,21.388,0,0,1,162.409,43.35l.855,7.024a14.393,14.393,0,1,0,10.062,2.041l3.465-6.17a21.378,21.378,0,0,1,7.546,28.763,21.483,21.483,0,0,1-18.7,10.916,21.41,21.41,0,0,1-20.552-15.615A20.976,20.976,0,0,1,146.984,54.029Z"/><circle cx="244.331" cy="74.059" r="1.424"/><path d="M247.8,74.438a3.813,3.813,0,0,1-.285,1.045l1.329.569a5.183,5.183,0,0,0,.38-1.471,4.842,4.842,0,0,0-3.18-5.031l-.475,1.329A3.421,3.421,0,0,1,247.8,74.438Z"/><rect x="245.462" y="79.899" width="1.424" height="8.496" transform="translate(-9.884 38.138) rotate(-8.685)"/><path d="M62.784,101.113,98.571,76.289,65.442,78.235l-20.6-32.559-1.9,34.838L3.834,70.4,29.8,91.857,12.188,124.038,43.466,104.15l27.766,34.127Zm-46.752,18.8L31.553,91.573,9.625,73.442l34.6,8.923,1.757-32.133,18.7,29.475L93.587,78,61.17,100.5l7.262,32.227L43.7,102.347Z"/></svg>