<svg xmlns="http://www.w3.org/2000/svg" viewBox="0 0 300 300"><defs><style>.a{fill:#fff;}.b{fill:#ffc5ff;}.c{fill:#ff553e;}.d{fill:#ffdb43;}</style></defs><title>Searching</title><path class="a" d="M194.769,93.443a15,15,0,0,1-10.822,9.834v6.613h-6.785v-6.613A15.046,15.046,0,0,1,165.61,89.964L165.7,86.7a15.013,15.013,0,0,1,11.981-12.755Z"/><rect class="a" x="224.271" y="83.093" width="70.084" height="70.084"/><path class="b" d="M151.1,83.051l20.055,4.938a.33.33,0,0,1,0,.644l-68.2,16.662V71.241l17.435,4.38,17.264,3.35,5.668,9.447V80.689Z"/><polygon class="b" points="65.637 71.241 81.87 75.235 81.87 101.259 65.637 105.295 65.637 71.241"/><rect x="21.405" y="134.197" width="77.041" height="15.76"/><rect class="c" x="5.644" y="134.197" width="15.76" height="15.76"/><rect class="a" x="5.644" y="149.656" width="82.452" height="50.244"/><circle class="a" cx="95.225" cy="88.29" r="18.423"/><path class="a" d="M95.225,81.934a13.682,13.682,0,0,0-10.994,5.54,13.68,13.68,0,0,0,21.988,0A13.682,13.682,0,0,0,95.225,81.934Z"/><circle class="a" cx="57.821" cy="88.29" r="18.423"/><path class="a" d="M68.858,87.474a13.684,13.684,0,0,1-10.994,5.539,14.543,14.543,0,0,1-3.908-.558v-9.92a13.047,13.047,0,0,1,3.908-.558A13.526,13.526,0,0,1,68.858,87.474Z"/><rect class="b" x="88.096" y="149.957" width="10.349" height="29.459"/><rect class="d" x="88.096" y="179.417" width="10.349" height="20.484"/><path d="M53.913,82.492v9.92a13.544,13.544,0,0,1-7.086-4.981A14.069,14.069,0,0,1,53.913,82.492Z"/><path d="M91.317,82.492v9.92a13.544,13.544,0,0,1-7.086-4.981A13.714,13.714,0,0,1,91.317,82.492Z"/><path class="c" d="M212.2,178.772l-53.937-20.527.687-13.828-8.031,8.246a14.152,14.152,0,0,1-19.11.987l-.172-.129a14.059,14.059,0,0,1-5.067-10.821V114.958H151.1v12.5l19.2-17.521h23.147s18.208,63.3,18.552,64.932A21.66,21.66,0,0,1,212.2,178.772Z"/><path class="d" d="M212.247,178.772,159,158.5a24.381,24.381,0,0,0-8.761-1.632h-.257a24.549,24.549,0,0,0-24.307,21.043l-5.539,38.735,37.447,13.27-5.068-44.576,31.693,12.067a20.614,20.614,0,0,0,20.7-3.607l.214-.172A19.459,19.459,0,0,0,212.247,178.772Z"/><path class="d" d="M174.542,193.76l9.577,3.65a20.477,20.477,0,0,0,16.662-.9h0l-6.871,27.785,18.294-6.785,14.429,35.257H183.26a19.4,19.4,0,0,1-18.638-24.779Z"/><polygon class="b" points="226.676 252.765 256.265 252.765 229.511 218.624 215.468 225.452 226.676 252.765"/><path d="M194.6,76.265l-18.337-5.2,10.35-20.828a5.308,5.308,0,0,1,6.184-2.748l.085.043a5.272,5.272,0,0,1,3.822,5.583Z"/><rect class="b" x="126.617" y="114.915" width="24.521" height="6.957"/><path class="a" d="M151.1,70.683v44.275H126.574V102.676l-11.852-19.8a3.534,3.534,0,0,1,1.245-4.9l.043-.043a3.535,3.535,0,0,1,4.9,1.246,3.524,3.524,0,0,1,1.245-4.9l.043-.043a3.558,3.558,0,0,1,4.895,1.2,3.543,3.543,0,0,1,1.246-4.895l.043-.043a3.533,3.533,0,0,1,4.9,1.245l10.049,16.791V70.683a3.83,3.83,0,0,1,3.822-3.822h.086A3.786,3.786,0,0,1,151.1,70.683Z"/><polygon class="b" points="160.113 252.765 157.537 229.919 132.586 221.072 105.746 252.765 160.113 252.765"/><path class="d" d="M195.542,88.676a14.6,14.6,0,0,1-.773,4.767L177.677,73.989a16.023,16.023,0,0,1,2.878-.3A14.973,14.973,0,0,1,195.542,88.676Z"/><path d="M215.811,224.551l-3.22-7.9-17.736,6.613,6.484-26.324a19.6,19.6,0,0,0,3.908-2.663l.215-.172a21.365,21.365,0,0,0,7.386-15.545l.086-.215-.086-.043a21.827,21.827,0,0,0-.73-5.969L193.91,109.16h-9.319v-5.453a15.635,15.635,0,0,0,3.779-28.644l19.325,5.5.344-1.246-12.755-3.521,2.062-22.631a5.965,5.965,0,0,0-4.3-6.27l-.086-.043a5.157,5.157,0,0,0-1.632-.215,5.889,5.889,0,0,0-5.325,3.307L175.96,70.3l-12.755-3.607-.343,1.245,12.5,3.565h0l5.669,1.589H180.6a17.464,17.464,0,0,0-2.62.214h0a15.674,15.674,0,0,0-12.711,12.583l-13.442-3.307V70.683a4.462,4.462,0,0,0-4.466-4.466h-.172a4.462,4.462,0,0,0-4.466,4.466V86.142l-8.846-14.815a4.246,4.246,0,0,0-5.8-1.46l-.043.043a4.3,4.3,0,0,0-2.061,3.564,7.738,7.738,0,0,0-.9-.344,4.325,4.325,0,0,0-3.178.473l-.043.043a3.583,3.583,0,0,0-1.288,1.245l-20.141-4.938h0a18.324,18.324,0,0,0-5.11-.687,19,19,0,0,0-13.227,5.368L63.1,69.953h0a18.428,18.428,0,0,0-5.153-.73,19.067,19.067,0,0,0,0,38.134,19.528,19.528,0,0,0,5.969-.945h0l18.165-4.423a18.919,18.919,0,0,0,13.27,5.368,19.734,19.734,0,0,0,5.969-.945h0l23.49-5.755,1.289,2.148v39.852a14.727,14.727,0,0,0,5.325,11.337l.172.129a14.757,14.757,0,0,0,9.447,3.392c.473,0,.988-.043,1.46-.086a25.341,25.341,0,0,0-8.846,4.939,25.071,25.071,0,0,0-8.46,15.417l-5.626,39.25,12.11,4.3-27.1,32.036h56.471L153.2,186.288l20.527,7.815-9.748,33.668a20.013,20.013,0,0,0,19.239,25.6h74.336l-27.871-35.6ZM187.211,50.5a4.625,4.625,0,0,1,4.165-2.577,4.432,4.432,0,0,1,1.289.172l.086.043a4.624,4.624,0,0,1,3.349,4.9l-2.061,22.373L177.205,70.64Zm-6.656,23.834A14.369,14.369,0,0,1,194.9,88.676a13.3,13.3,0,0,1-.43,3.479L178.923,74.419C179.481,74.376,180,74.333,180.555,74.333Zm-3.092.343,16.619,18.939a14.351,14.351,0,0,1-10.221,9.061l-.515.129v6.484h-5.5v-6.484l-.515-.129a14.089,14.089,0,0,1-6.785-3.736,6.323,6.323,0,0,0,.9.043,10.157,10.157,0,0,0,7.773-3.565l-.987-.859a9.072,9.072,0,0,1-6.828,3.135,8.107,8.107,0,0,1-2.276-.3A14.55,14.55,0,0,1,166.3,90.48l4.982-1.2a.15.15,0,0,0,.086-.043l6.226,2.448.473-1.2L172.4,88.247l5.755-3.693-.687-1.074-6.141,3.908c-.043,0-.043,0-.086-.043l-4.9-1.2A14.655,14.655,0,0,1,177.463,74.676Zm-50.2,40.883h23.233v5.669H127.261Zm24.478-21.515L165.1,90.78a15.533,15.533,0,0,0,11.423,13.012v5.454h-6.485l-18.294,16.7Zm18.037-5.754-18.037,4.423V83.866ZM80.968,75.664a19.144,19.144,0,0,0-4.424,8.89A19,19,0,0,0,68.772,72.7ZM40.085,88.29a17.779,17.779,0,1,1,17.779,17.778A17.814,17.814,0,0,1,40.085,88.29Zm36.459,3.779a19.342,19.342,0,0,0,4.381,8.846l-12.11,2.963A19.377,19.377,0,0,0,76.544,92.069Zm.9-3.779a17.779,17.779,0,1,1,17.779,17.778A17.814,17.814,0,0,1,77.446,88.29Zm28.773,15.545a19.029,19.029,0,0,0-.086-31.177l13.828,3.393c0,.043-.043.128-.043.171a3.58,3.58,0,0,0-.129.945,4.19,4.19,0,0,0-4.08.129l-.043.043a4.247,4.247,0,0,0-1.46,5.8L124,99.5Zm9.061-21.343a3.12,3.12,0,0,1-.344-2.233,2.718,2.718,0,0,1,1.332-1.8l.043-.043a2.98,2.98,0,0,1,4.036.987l9.061,15.117,1.117-.645-9.061-15.116a3.115,3.115,0,0,1-.344-2.233,2.722,2.722,0,0,1,1.332-1.8l.042-.043a2.982,2.982,0,0,1,4.037.988l9.061,15.116,1.117-.644-9.061-15.073a2.981,2.981,0,0,1,.987-4.037l.043-.043a2.981,2.981,0,0,1,4.037.988l11.9,19.84,1.116-.644-1.718-2.877V70.683a3.171,3.171,0,0,1,3.178-3.178h.086a3.171,3.171,0,0,1,3.178,3.178v43.631H127.218V102.5Zm16.963,70.643-.172-.129a13.444,13.444,0,0,1-4.853-10.349V122.516h23.233v7.3h1.288v-2.147l18.767-17.177h22.416l17.908,62.225a18.81,18.81,0,0,1,.687,5.111L159.211,157.9c-.085-.043-.171-.043-.257-.086l.687-13.1,12.11-12.411-.9-.9L150.494,152.19A13.543,13.543,0,0,1,132.243,153.135Zm19.153-.043,6.871-7-.6,11.294a25.519,25.519,0,0,0-7.429-1.116h-.257a23.51,23.51,0,0,0-3.865.3A14.7,14.7,0,0,0,151.4,153.092Zm-44.233,99.029L132.8,221.845l24.134,8.546,2.448,21.73Zm49.6-23.147-35.987-12.755,5.5-38.22a24.091,24.091,0,0,1,23.706-20.484h.257a23.367,23.367,0,0,1,8.546,1.589l52.778,20.141a20.09,20.09,0,0,1-6.914,13.914l-.215.171a19.823,19.823,0,0,1-20.054,3.479L151.7,184.355Zm11.509,15.674a18.587,18.587,0,0,1-3.006-16.49l9.705-33.582,8.932,3.392a21.281,21.281,0,0,0,15.932-.343l-6.828,27.656,18.853-7,13.828,33.8H183.26A18.352,18.352,0,0,1,168.273,244.648Zm58.833,7.473-10.779-26.368,13.012-6.313,25.594,32.681Z"/><path d="M57.821,81.29a14.121,14.121,0,0,0-11.509,5.8l-.3.387.3.386a14.322,14.322,0,0,0,23.018,0l.3-.386-.3-.387A14.122,14.122,0,0,0,57.821,81.29ZM47.643,87.474a12.887,12.887,0,0,1,5.626-4.08v8.159A13.143,13.143,0,0,1,47.643,87.474Zm10.178,4.895a11.761,11.761,0,0,1-3.264-.429V82.965a13.578,13.578,0,0,1,3.264-.43A12.882,12.882,0,0,1,68,87.431,12.8,12.8,0,0,1,57.821,92.369Z"/><path d="M95.225,81.29a14.122,14.122,0,0,0-11.509,5.8l-.3.387.3.386a14.322,14.322,0,0,0,23.018,0l.3-.386-.3-.387A14.18,14.18,0,0,0,95.225,81.29ZM85,87.474a12.887,12.887,0,0,1,5.626-4.08v8.159A13.4,13.4,0,0,1,85,87.474Zm10.221,4.895a11.766,11.766,0,0,1-3.264-.429V82.965a13.585,13.585,0,0,1,3.264-.43,12.882,12.882,0,0,1,10.178,4.9A12.922,12.922,0,0,1,95.225,92.369Z"/><path d="M20.76,133.552H5v66.993H99.09V133.552H20.76Zm-6.312,8.5,6.312-6.312v12.625Zm-.945-.9L7.19,134.841H19.816Zm-.9.9-6.313,6.313V135.743Zm.9.9,6.313,6.313H7.19Zm-7.215,56.3V150.6H87.5v48.656Zm91.514,0H88.741v-19.2H97.8Zm0-20.485H88.741V150.6H97.8Zm0-43.931v14.472H22.049V134.841Z"/><path d="M271.638,82.449H223.627v71.373H295V82.449Zm-23.361,1.289H270.35v22.073H248.277Zm22.073,45.434H248.277V107.1H270.35ZM224.916,83.738h22.073v22.073H224.916Zm0,23.361h22.073v22.073H224.916Zm22.073,45.478H224.916V130.461h22.073Zm23.361,0H248.277V130.461H270.35Zm23.362,0H271.638V130.461h22.074Zm0-23.4H271.638V107.1h22.074Zm-22.074-23.361V83.738h22.074v22.073Z"/><path d="M56.232,162.454a14.967,14.967,0,0,0-10.693-4.423,15.146,15.146,0,0,0-10.693,4.423,14.971,14.971,0,0,0-4.423,10.693,15.152,15.152,0,0,0,4.423,10.693,15.107,15.107,0,0,0,20.914.429l7.386,7.387.9-.9-7.387-7.387A15.07,15.07,0,0,0,56.232,162.454ZM35.791,182.9a13.736,13.736,0,0,1-4.037-9.791,13.915,13.915,0,0,1,4.037-9.791,13.735,13.735,0,0,1,9.791-4.037A13.828,13.828,0,0,1,55.373,182.9a13.892,13.892,0,0,1-19.582,0Z"/></svg>